<?xml version="1.0" standalone="no"?>
<!DOCTYPE svg PUBLIC "-//W3C//DTD SVG 20010904//EN"
 "http://www.w3.org/TR/2001/REC-SVG-20010904/DTD/svg10.dtd">
<svg version="1.0" xmlns="http://www.w3.org/2000/svg"
 width="1024" height="1024" viewBox="0 0 1024.000000 1024.000000"
 preserveAspectRatio="xMidYMid meet">

<rect width="1024" height="1024" fill="#f2f3f5"/>

<g transform="translate(512 512) scale(1.22) translate(-512 -512)">
<g transform="translate(0.000000,1024.000000) scale(0.100000,-0.100000)"
fill="#000000" stroke="none">
<path d="M5082 7911 c-56 -251 -81 -336 -155 -521 -56 -139 -69 -164 -133
-240 -39 -47 -115 -129 -169 -184 l-99 -99 -79 6 c-44 4 -82 8 -84 10 -2 2 20
57 47 122 28 65 54 132 57 149 l5 31 -17 -25 c-10 -14 -75 -83 -144 -155 -70
-71 -144 -153 -166 -181 -59 -76 -140 -135 -243 -178 l-92 -39 -61 27 c-33 14
-71 26 -85 26 -24 0 -24 -1 -10 -27 8 -16 36 -49 63 -75 38 -37 61 -50 109
-62 88 -23 98 -21 209 30 168 78 236 101 328 114 48 7 91 10 94 7 3 -3 8 -29
12 -58 l6 -52 30 30 c17 17 74 65 128 107 71 55 106 76 127 76 21 0 36 9 52
30 l22 31 25 -48 c42 -84 149 -340 171 -410 l21 -68 -75 -72 c-63 -61 -72 -73
-53 -73 29 0 102 -46 162 -101 l46 -42 27 24 c15 13 43 38 63 57 19 18 71 48
115 67 62 27 73 35 50 35 -39 0 -105 33 -139 68 -23 24 -26 33 -19 53 5 13 12
49 16 79 12 94 150 420 178 420 5 0 14 -11 20 -25 13 -29 10 -27 65 -29 35 -2
57 -14 137 -75 53 -40 109 -89 125 -108 l28 -34 5 55 c3 31 7 58 9 61 6 5 160
-19 221 -35 23 -7 99 -38 167 -71 132 -63 142 -65 223 -48 45 10 63 22 125 81
43 43 69 76 66 84 -8 20 -22 18 -102 -17 l-71 -32 -68 28 c-130 54 -165 81
-345 262 -97 98 -190 196 -207 218 -18 22 -34 42 -37 45 -11 11 47 -130 81
-197 20 -40 36 -77 36 -83 0 -6 -34 -10 -86 -10 l-85 0 -61 58 c-115 109 -258
290 -298 377 -91 197 -159 417 -216 695 -9 47 -20 88 -24 93 -3 4 -25 -78 -48
-182z m61 -631 c0 -124 -4 -243 -10 -265 -8 -35 -11 -19 -23 124 -12 154 -9
319 7 416 l7 40 10 -45 c5 -25 9 -146 9 -270z"/>
<path d="M6345 6872 c6 -5 58 -30 118 -55 181 -79 208 -103 276 -244 41 -85
39 -98 -27 -185 l-47 -63 -140 -7 c-77 -3 -292 -8 -478 -10 l-339 -3 38 -30
c20 -16 48 -39 62 -51 l24 -20 -22 -45 c-27 -52 -148 -240 -165 -254 -6 -5
-37 -66 -69 -135 -32 -69 -62 -129 -67 -134 -26 -29 -7 -32 92 -18 131 19 131
19 136 -119 l3 -102 42 -36 c23 -20 51 -43 62 -52 23 -19 29 -10 -92 -150
l-72 -84 -2 -765 c-3 -1304 -2 -1332 43 -1066 35 207 80 294 252 487 65 74 98
102 141 122 31 15 59 27 61 27 14 0 0 -32 -41 -95 -61 -93 -80 -137 -94 -215
-6 -36 -13 -78 -16 -93 -6 -29 -5 -28 73 26 81 57 134 87 153 87 5 0 19 -9 31
-21 l20 -20 167 163 c92 90 191 181 220 203 l53 40 -41 13 -42 14 29 18 c34
20 148 74 179 84 14 4 42 45 79 114 54 99 71 120 231 282 186 189 199 207 268
398 37 103 122 459 112 469 -8 9 -77 -92 -151 -221 -53 -91 -99 -155 -151
-211 -72 -77 -75 -79 -71 -47 2 17 2 32 1 32 -2 0 -56 -66 -121 -147 -65 -82
-150 -183 -190 -227 -40 -43 -83 -100 -95 -127 -19 -39 -33 -54 -79 -78 -31
-17 -60 -31 -63 -31 -11 0 13 39 74 125 58 80 137 215 126 215 -3 0 -43 -24
-88 -54 -121 -78 -190 -110 -303 -140 -92 -25 -167 -61 -254 -123 -24 -17 -24
-17 -18 7 3 14 11 55 17 92 l12 67 -47 85 -47 86 56 178 c38 119 67 193 90
227 19 28 37 60 41 73 11 38 65 92 118 119 54 27 217 49 287 38 45 -7 74 9 35
19 -15 4 -70 36 -123 72 l-95 64 -158 0 -159 0 0 168 c0 93 3 204 7 246 l6 78
309 -6 c246 -5 315 -9 338 -21 45 -24 46 -35 6 -72 -21 -19 -36 -36 -34 -37
19 -16 170 -97 237 -129 85 -39 87 -39 171 -33 82 5 164 27 226 59 36 18 168
148 225 219 l41 52 -92 23 c-76 18 -111 34 -213 97 -67 42 -132 84 -144 93
-23 20 -94 131 -163 258 -47 87 -125 198 -162 231 -12 11 -42 41 -65 66 -23
25 -46 49 -51 52 -6 3 -66 17 -134 31 -68 14 -150 31 -183 39 -75 18 -192 29
-180 18z m541 -307 c24 -53 64 -122 87 -153 24 -32 69 -109 101 -170 42 -81
72 -124 106 -155 63 -56 186 -129 288 -170 89 -37 89 -36 16 -76 l-41 -23 -60
30 c-82 42 -109 67 -195 179 -101 133 -168 234 -211 319 -39 78 -67 110 -67
78 -1 -11 -7 -30 -14 -43 -15 -27 -13 -33 -43 124 -7 39 -41 105 -53 105 -19
0 -10 31 13 40 12 5 23 9 25 9 2 1 23 -42 48 -94z m-119 -2383 c-21 -21 -75
-60 -121 -85 -81 -45 -84 -47 -114 -116 -32 -70 -32 -71 -112 -111 -44 -22
-80 -37 -80 -33 0 14 109 199 127 215 23 20 308 168 325 168 6 0 -5 -17 -25
-38z m-806 -143 c-53 -153 -73 -198 -86 -193 -7 3 -20 -5 -29 -18 -23 -32 -20
-17 10 55 28 68 125 249 131 244 1 -2 -10 -41 -26 -88z"/>
<path d="M3798 6840 c-54 -16 -146 -36 -205 -45 -171 -25 -171 -25 -269 -126
-86 -88 -111 -123 -259 -360 -51 -82 -84 -123 -120 -150 -27 -21 -79 -61 -115
-89 -87 -68 -134 -88 -218 -96 -44 -4 -72 -11 -72 -18 0 -34 216 -202 362
-281 85 -46 98 -57 167 -147 185 -236 283 -358 292 -364 6 -3 90 -12 187 -19
l177 -13 150 -67 c83 -37 183 -80 224 -95 40 -16 84 -36 98 -45 l25 -17 -4
-246 c-2 -136 1 -262 6 -281 l8 -34 -33 22 c-19 12 -62 36 -96 54 -62 31 -64
31 -131 19 -66 -11 -74 -10 -158 18 -49 16 -107 34 -130 39 -23 6 -78 39 -125
74 -129 97 -280 199 -285 194 -3 -2 28 -44 69 -93 40 -49 97 -123 125 -164 29
-41 75 -106 102 -144 28 -38 48 -71 46 -74 -3 -2 -31 10 -63 27 -47 25 -62 39
-72 68 -7 19 -50 77 -95 127 -100 111 -169 200 -232 297 -101 158 -135 209
-140 209 -4 0 -4 -15 -2 -34 3 -24 0 -33 -8 -28 -24 15 -100 111 -155 197 -81
126 -130 197 -135 193 -7 -8 76 -391 102 -464 66 -193 80 -213 273 -409 167
-169 181 -186 229 -280 l51 -100 116 -54 c63 -30 113 -56 110 -59 -2 -3 -21
-8 -40 -11 l-36 -6 93 -77 c51 -42 149 -132 217 -201 l123 -125 27 16 c26 14
30 14 87 -17 33 -17 84 -53 113 -78 l53 -47 -5 40 c-3 21 -9 66 -13 99 -7 72
-19 96 -84 175 -45 53 -117 196 -105 208 6 7 127 -64 157 -92 25 -24 33 -44
53 -130 4 -19 39 -63 92 -117 47 -48 101 -109 119 -136 32 -47 81 -172 126
-323 18 -64 23 -71 29 -50 4 14 7 215 8 448 1 299 4 430 13 445 6 12 26 40 45
61 l33 40 0 442 0 443 -102 88 c-57 48 -155 135 -218 194 -63 58 -125 111
-136 117 -12 6 -73 25 -135 42 -106 29 -242 82 -431 167 l-77 35 -62 107 c-34
58 -64 109 -66 113 -2 3 8 20 22 36 33 40 59 42 322 33 l221 -8 53 -34 c29
-18 84 -57 122 -87 37 -29 111 -82 163 -117 l95 -65 159 0 c88 0 160 4 160 8
0 5 -9 17 -21 28 -12 10 -54 69 -94 129 -40 61 -95 135 -122 165 -103 116
-173 221 -173 259 0 6 46 34 103 63 l102 53 -135 9 c-74 5 -274 9 -445 7 -170
-1 -356 1 -411 4 l-102 7 -7 43 c-8 59 8 115 62 208 57 98 95 129 236 199 63
31 118 61 122 67 8 14 8 14 -107 -19z m-326 -200 l37 -14 -48 -51 c-44 -46
-50 -59 -66 -133 l-18 -82 -23 26 c-13 14 -24 33 -24 43 0 42 80 233 95 228 5
-2 27 -10 47 -17z m-162 -235 c0 -11 -64 -132 -98 -185 -37 -58 -177 -234
-208 -262 -11 -9 -56 -37 -100 -62 -77 -42 -84 -44 -124 -35 -24 5 -47 12 -53
16 -5 3 46 36 113 74 207 116 261 164 347 304 56 94 102 155 114 155 5 0 9 -2
9 -5z m464 -2341 c18 -12 148 -225 142 -232 -2 -1 -39 15 -82 37 -72 35 -81
43 -92 77 -21 68 -49 101 -130 153 -69 45 -132 100 -132 117 0 6 259 -127 294
-152z m623 -94 c32 -41 66 -87 75 -101 18 -28 73 -228 58 -213 -4 5 -33 54
-63 109 -59 106 -155 307 -139 290 6 -5 36 -44 69 -85z"/>
<path d="M5115 5908 c-4 -13 -40 -93 -80 -178 -39 -85 -80 -176 -90 -202 -18
-49 -31 -58 -53 -36 -10 10 -27 -2 -80 -54 -67 -67 -158 -121 -250 -149 -50
-15 -39 -28 23 -29 53 -1 135 -35 224 -95 98 -66 132 -108 166 -207 15 -46 54
-150 86 -233 31 -82 59 -159 61 -170 4 -16 6 -17 11 -5 19 46 117 325 136 385
36 117 60 156 121 197 111 75 189 110 295 134 30 6 29 6 -16 18 -70 18 -180
89 -238 152 -46 50 -55 56 -82 50 -26 -5 -31 -2 -40 22 -36 99 -175 422 -181
422 -3 0 -10 -10 -13 -22z m31 -459 c6 -48 16 -95 23 -103 7 -8 42 -17 89 -21
43 -4 94 -10 113 -14 l34 -8 -50 -7 c-27 -4 -84 -13 -125 -19 l-75 -13 -7 -54
c-3 -30 -7 -89 -8 -130 -1 -41 -5 -86 -9 -100 -7 -21 -9 -17 -14 25 -3 28 -9
93 -12 146 -4 52 -10 100 -13 105 -8 11 -135 34 -192 34 -73 0 -50 17 38 29
49 6 98 11 110 11 32 0 49 35 62 133 7 48 15 85 19 82 3 -4 11 -47 17 -96z"/>
<path d="M4960 4558 c-1 -205 -45 -468 -96 -570 -41 -82 -43 -83 -75 -46 l-28
33 -1 -105 c0 -100 -2 -110 -35 -178 -32 -67 -34 -76 -21 -100 7 -15 22 -53
32 -84 l18 -58 18 28 c10 15 23 27 30 27 15 0 74 -104 210 -372 57 -112 105
-203 108 -203 3 0 29 48 57 108 60 122 258 465 272 470 5 2 19 -22 32 -53 12
-30 26 -52 29 -48 4 5 19 52 34 105 l26 98 -21 92 c-25 111 -25 96 -10 187 6
40 10 75 8 77 -2 3 -24 -11 -49 -30 l-45 -35 -11 32 c-6 18 -22 59 -36 93 -35
82 -55 218 -61 409 -3 88 -9 180 -12 205 l-5 45 -15 -40 c-35 -98 -73 -272
-82 -381 -9 -100 -16 -128 -41 -178 -24 -48 -30 -72 -30 -125 0 -55 -7 -160
-31 -516 -1 -11 -5 -2 -10 20 -5 22 -11 159 -15 305 -6 251 -7 268 -30 319
-21 47 -24 68 -24 180 0 72 -7 156 -15 196 -22 102 -57 215 -66 215 -5 0 -9
-55 -9 -122z"/>
<path d="M3910 2897 c-13 -7 -31 -24 -39 -38 -13 -24 -13 -29 2 -52 10 -15 29
-27 52 -31 20 -4 39 -14 42 -22 13 -34 -47 -60 -75 -32 -9 9 -15 9 -24 -1 -11
-10 -8 -16 11 -32 58 -48 163 10 137 77 -3 8 -28 25 -56 37 -59 26 -63 50 -10
55 19 2 41 9 49 15 10 9 6 14 -20 23 -43 16 -40 16 -69 1z"/>
<path d="M4244 2881 c-44 -27 -64 -59 -64 -104 0 -51 52 -107 99 -107 124 0
167 162 57 214 -43 20 -54 20 -92 -3z m87 -49 c45 -37 16 -122 -41 -122 -29 0
-70 39 -70 66 0 30 41 74 68 74 11 0 30 -8 43 -18z"/>
<path d="M4572 2804 c3 -91 5 -98 28 -116 15 -10 45 -20 68 -21 64 -2 76 16
81 118 4 100 0 115 -28 108 -19 -5 -21 -13 -21 -93 0 -85 -1 -88 -25 -92 -13
-3 -34 1 -45 9 -17 12 -20 25 -20 99 0 78 -1 84 -20 84 -20 0 -21 -5 -18 -96z"/>
<path d="M5307 2893 c-4 -3 -7 -55 -7 -115 0 -99 2 -108 19 -108 15 0 20 10
25 52 l7 51 47 -51 c26 -29 55 -52 65 -52 22 0 22 4 -8 47 l-24 37 24 24 c14
14 25 30 25 36 -1 32 -16 58 -41 71 -28 15 -120 21 -132 8z m118 -64 c8 -25
-8 -39 -47 -39 -24 0 -28 4 -28 30 0 28 3 30 34 30 27 0 36 -5 41 -21z"/>
<path d="M5667 2893 c-4 -3 -7 -55 -7 -115 l0 -108 25 0 25 0 0 109 c0 90 -3
110 -16 115 -19 7 -19 7 -27 -1z"/>
<path d="M5907 2893 c-4 -3 -7 -55 -7 -115 0 -101 1 -108 20 -108 17 0 20 7
20 44 0 44 0 45 37 48 27 2 39 8 41 21 3 12 -3 17 -21 17 -38 0 -57 10 -57 31
0 15 7 19 39 19 52 0 71 8 71 31 0 17 -8 19 -68 19 -38 0 -72 -3 -75 -7z"/>
<path d="M6220 2885 c0 -8 0 -17 0 -20 0 -3 12 -6 28 -7 l27 -3 3 -92 c1 -51
6 -93 10 -93 24 1 31 22 34 100 3 84 3 85 31 88 19 2 27 9 27 23 0 17 -8 19
-80 19 -64 0 -80 -3 -80 -15z"/>
<path d="M4958 2780 l3 -110 80 0 c72 0 79 2 79 20 0 18 -7 20 -60 20 l-60 0
0 90 c0 87 -1 90 -22 90 -23 0 -23 -2 -20 -110z"/>
<path d="M5127 2564 c-4 -4 -7 -75 -7 -158 0 -185 16 -186 26 0 6 121 0 176
-19 158z"/>
</g>
</g>
</svg>
